<svg fill="none" height="24" viewBox="0 0 24 24" width="24" xmlns="http://www.w3.org/2000/svg"><g stroke="#292d32" stroke-linecap="round" stroke-linejoin="round" stroke-width="1.5"><g stroke-miterlimit="10"><path d="m17 2c3 0 5 2 5 5v2"/><path d="m2 9v-2c0-3 2-5 5-5h5.77"/><path d="m22.0007 15v2c0 3-2 5-5 5h-5.53"/><path d="m2 15v2c0 3 2 5 5 5"/></g><path d="m6.69922 9.26001 5.29998 3.06999 5.26-3.04997"/><path d="m12 17.7701v-5.45"/><path d="m10.7602 6.29006-3.19997 1.78003c-.72.4-1.32 1.40999-1.32 2.24001v3.39c0 .83.59 1.84 1.32 2.24l3.19997 1.78c.68.38 1.8.38 2.49 0l3.2-1.78c.72-.4 1.32-1.41 1.32-2.24v-3.39c0-.83002-.59-1.84001-1.32-2.24001l-3.2-1.78003c-.69-.39-1.81-.39-2.49 0z"/></g></svg>