<svg xmlns="http://www.w3.org/2000/svg" width="64" height="64" enable-background="new 0 0 64 64" viewBox="0 0 64 64" id="print"><path fill="#656D78" d="M63,7v50c0,3.3-2.7,6-6,6H7c-3.3,0-6-2.7-6-6V7c0-3.3,2.7-6,6-6h50C60.3,1,63,3.7,63,7z"></path><polygon fill="#434A54" points="56 55 56 51 56 20 56 14 56 8 8 8 8 14 8 20 8 51 8 55"></polygon><polygon fill="#CCD1D9" points="34 23 34 26 32 26 30 26 30 23"></polygon><circle cx="28.5" cy="41" r="2.5" fill="#AAB2BD"></circle><rect width="20" height="6" x="36" y="14" fill="#AAB2BD"></rect><path fill="#AAB2BD" d="M32,31h6v1.87c0.74,0.229,1.43,0.55,2.06,0.96H35.91l-1.641,0.95c-0.92-0.86-2.039-1.53-3.27-1.91V31H32z"></path><path fill="#E6E9ED" d="M20.21,42.89C20.08,42.28,20,41.65,20,41s0.08-1.29,0.22-1.9l-1.64-0.939l2.5-4.33l1.64,0.95
			c0.931-0.86,2.04-1.53,3.28-1.91V31h5v1.87c1.23,0.38,2.35,1.05,3.27,1.91l1.641-0.95l2.5,4.33L36.78,39.1
			C36.92,39.71,37,40.35,37,41s-0.08,1.28-0.22,1.89l1.63,0.94l-2.5,4.34l-1.641-0.95c-0.92,0.86-2.039,1.521-3.27,1.9V51h-5v-1.88
			c-1.24-0.38-2.36-1.04-3.28-1.9l-1.64,0.94l-2.5-4.33L20.21,42.89z M26,41c0,1.38,1.12,2.5,2.5,2.5S31,42.38,31,41
			s-1.12-2.5-2.5-2.5S26,39.62,26,41z"></path><polygon fill="#E6E9ED" points="36 20 36 23 34 23 30 23 28 23 28 20 28 14 28 11 36 11 36 14"></polygon><path fill="#AAB2BD" d="M38 49.12V51h-7v-1.88c1.23-.38 2.35-1.04 3.27-1.9l1.641.95h4.16C39.43 48.57 38.74 48.9 38 49.12zM43.78 42.89l1.63.94h-7l-1.63-.94C36.92 42.28 37 41.65 37 41s-.08-1.29-.22-1.9l1.63-.939h7.01L43.78 39.1C43.92 39.71 44 40.35 44 41S43.92 42.28 43.78 42.89z"></path><polygon fill="#CCD1D9" points="42.91 33.83 45.42 38.16 38.41 38.16 35.91 33.83 40.06 33.83"></polygon><rect width="20" height="6" x="8" y="14" fill="#AAB2BD"></rect><polygon fill="#CCD1D9" points="45.41 43.83 42.91 48.17 40.07 48.17 35.91 48.17 38.41 43.83"></polygon><polygon fill="#545C66" points="56 51 56 55 8 55 8 51 26 51 31 51 38 51"></polygon><g><path d="M44.03 60c-.553 0-1.005-.447-1.005-1s.442-1 .994-1h.011c.552 0 1 .447 1 1S44.582 60 44.03 60zM48.03 60c-.553 0-1.005-.447-1.005-1s.442-1 .994-1h.011c.552 0 1 .447 1 1S48.582 60 48.03 60zM52.03 60c-.553 0-1.005-.447-1.005-1s.442-1 .994-1h.011c.552 0 1 .447 1 1S52.582 60 52.03 60zM12.03 60c-.553 0-1.005-.447-1.005-1s.442-1 .994-1h.011c.552 0 1 .447 1 1S12.582 60 12.03 60zM16.03 60c-.553 0-1.005-.447-1.005-1s.442-1 .994-1h.011c.552 0 1 .447 1 1S16.582 60 16.03 60zM20.03 60c-.553 0-1.005-.447-1.005-1s.442-1 .994-1h.011c.552 0 1 .447 1 1S20.582 60 20.03 60z"></path><path d="M57,64H7c-3.859,0-7-3.141-7-7V7c0-3.859,3.141-7,7-7h50c3.859,0,7,3.141,7,7v50C64,60.859,60.859,64,57,64z M7,2
				C4.243,2,2,4.243,2,7v50c0,2.757,2.243,5,5,5h50c2.757,0,5-2.243,5-5V7c0-2.757-2.243-5-5-5H7z"></path><path d="M56 52H8c-.553 0-1-.447-1-1s.447-1 1-1h48c.553 0 1 .447 1 1S56.553 52 56 52zM28 15H8c-.553 0-1-.447-1-1s.447-1 1-1h20c.553 0 1 .447 1 1S28.553 15 28 15zM28 21H8c-.553 0-1-.447-1-1s.447-1 1-1h20c.553 0 1 .447 1 1S28.553 21 28 21zM56 15H36c-.553 0-1-.447-1-1s.447-1 1-1h20c.553 0 1 .447 1 1S56.553 15 56 15zM56 21H36c-.553 0-1-.447-1-1s.447-1 1-1h20c.553 0 1 .447 1 1S56.553 21 56 21z"></path><path d="M36,24h-8c-0.553,0-1-0.447-1-1V11c0-0.553,0.447-1,1-1h8c0.553,0,1,0.447,1,1v12C37,23.553,36.553,24,36,24z M29,22h6
					V12h-6V22z"></path><path d="M30,26.999c-0.553,0-1-0.447-1-1V23c0-0.553,0.447-1,1-1s1,0.447,1,1v2.999C31,26.552,30.553,26.999,30,26.999z"></path><path d="M34,26.999h-4c-0.553,0-1-0.447-1-1s0.447-1,1-1h4c0.553,0,1,0.447,1,1S34.553,26.999,34,26.999z"></path><path d="M34 26.999c-.553 0-1-.447-1-1V23c0-.553.447-1 1-1s1 .447 1 1v2.999C35 26.552 34.553 26.999 34 26.999zM32 28.999c-.553 0-1-.447-1-1v-2c0-.553.447-1 1-1s1 .447 1 1v2C33 28.552 32.553 28.999 32 28.999z"></path><g><path d="M56,56H8c-0.553,0-1-0.447-1-1V8c0-0.553,0.447-1,1-1h48c0.553,0,1,0.447,1,1v47C57,55.553,56.553,56,56,56z M9,54h46V9
				H9V54z"></path></g><g><path d="M39,60H25c-0.553,0-1-0.447-1-1s0.447-1,1-1h14c0.553,0,1,0.447,1,1S39.553,60,39,60z"></path></g><g><path d="M30.995,52.001h-5c-0.553,0-1-0.447-1-1v-1.17c-0.853-0.34-1.662-0.811-2.392-1.39l-1.021,0.59
					c-0.23,0.132-0.504,0.167-0.759,0.1c-0.256-0.068-0.475-0.236-0.607-0.466l-2.5-4.33c-0.133-0.229-0.168-0.503-0.1-0.759
					s0.236-0.475,0.466-0.607l1.018-0.587c-0.07-0.466-0.105-0.928-0.105-1.382c0-0.455,0.035-0.918,0.105-1.383l-1.017-0.587
					c-0.229-0.133-0.397-0.352-0.466-0.607s-0.033-0.529,0.1-0.759l2.5-4.33c0.133-0.229,0.352-0.397,0.607-0.466
					c0.254-0.067,0.528-0.032,0.759,0.1l1.021,0.59c0.729-0.578,1.538-1.048,2.391-1.389v-1.17c0-0.553,0.447-1,1-1h5
					c0.553,0,1,0.447,1,1v1.17c0.853,0.341,1.661,0.811,2.39,1.389l1.021-0.59c0.477-0.276,1.089-0.113,1.366,0.366l2.502,4.33
					c0.133,0.229,0.168,0.502,0.1,0.759c-0.068,0.256-0.236,0.475-0.466,0.607l-1.018,0.587c0.07,0.466,0.105,0.929,0.105,1.383
					s-0.035,0.917-0.105,1.382l1.017,0.587c0.479,0.276,0.643,0.888,0.366,1.366l-2.5,4.331c-0.133,0.229-0.352,0.397-0.607,0.466
					c-0.256,0.066-0.529,0.031-0.759-0.1l-1.021-0.59c-0.729,0.578-1.538,1.048-2.391,1.389v1.17
					C31.995,51.554,31.548,52.001,30.995,52.001z M26.995,50.001h3v-0.876c0-0.439,0.286-0.827,0.706-0.956
					c1.073-0.33,2.046-0.895,2.891-1.679c0.323-0.3,0.801-0.353,1.181-0.134L35.54,46.8l1.5-2.599l-0.764-0.441
					c-0.38-0.22-0.572-0.66-0.475-1.088c0.128-0.565,0.193-1.128,0.193-1.672s-0.065-1.106-0.194-1.673
					c-0.097-0.428,0.096-0.868,0.476-1.088l0.765-0.441L35.54,35.2l-0.769,0.443c-0.38,0.218-0.859,0.167-1.181-0.134
					c-0.832-0.772-1.831-1.354-2.89-1.679c-0.42-0.129-0.706-0.517-0.706-0.956v-0.876h-3v0.876c0,0.439-0.286,0.827-0.706,0.956
					c-1.073,0.33-2.046,0.895-2.891,1.679c-0.323,0.301-0.8,0.352-1.181,0.134L21.45,35.2l-1.5,2.598l0.765,0.441
					c0.38,0.22,0.572,0.661,0.475,1.089c-0.129,0.564-0.194,1.127-0.194,1.672c0,0.543,0.065,1.105,0.194,1.672
					c0.097,0.428-0.096,0.868-0.476,1.088l-0.765,0.441l1.5,2.598l0.768-0.443c0.38-0.218,0.857-0.167,1.181,0.134
					c0.846,0.785,1.818,1.351,2.892,1.68c0.42,0.129,0.706,0.517,0.706,0.956V50.001z"></path><path d="M40.061 34.832c-.185 0-.372-.051-.539-.158-.564-.362-1.175-.646-1.814-.843-.419-.13-.705-.518-.705-.956v-.876H31c-.553 0-1-.447-1-1s.447-1 1-1h7.002c.553 0 1 .447 1 1v1.169c.558.222 1.093.497 1.6.822.465.299.6.917.302 1.382C40.712 34.67 40.39 34.832 40.061 34.832zM42.912 49.166c-.17 0-.342-.043-.499-.134-.479-.276-.643-.888-.366-1.366l2-3.465-.764-.441c-.38-.22-.572-.66-.475-1.088.128-.565.193-1.128.193-1.672s-.065-1.106-.194-1.673c-.097-.428.096-.868.476-1.088l.765-.441-2.002-3.464c-.276-.478-.112-1.09.366-1.366.477-.276 1.089-.113 1.366.366l2.502 4.33c.133.229.168.502.1.759-.068.256-.236.475-.466.607l-1.018.587c.07.466.105.929.105 1.383s-.035.917-.105 1.382l1.017.587c.479.276.643.888.366 1.366l-2.5 4.331C43.594 48.986 43.258 49.166 42.912 49.166zM38.002 52.001c-.553 0-1-.447-1-1v-1.876c0-.439.286-.827.706-.956.637-.195 1.248-.48 1.816-.845.464-.299 1.083-.164 1.382.302.298.465.163 1.084-.302 1.382-.509.326-1.046.603-1.603.824v1.169C39.002 51.554 38.555 52.001 38.002 52.001zM28.495 44.5c-1.93 0-3.5-1.57-3.5-3.5s1.57-3.5 3.5-3.5 3.5 1.57 3.5 3.5S30.425 44.5 28.495 44.5zM28.495 39.5c-.827 0-1.5.673-1.5 1.5s.673 1.5 1.5 1.5 1.5-.673 1.5-1.5S29.322 39.5 28.495 39.5z"></path><g><path d="M42.912,34.834h-7.007c-0.553,0-1-0.447-1-1s0.447-1,1-1h7.007c0.553,0,1,0.447,1,1S43.465,34.834,42.912,34.834z"></path></g><g><path d="M45.414,39.164h-7.007c-0.553,0-1-0.447-1-1s0.447-1,1-1h7.007c0.553,0,1,0.447,1,1S45.967,39.164,45.414,39.164z"></path></g><g><path d="M45.413,44.835h-7.007c-0.553,0-1-0.447-1-1s0.447-1,1-1h7.007c0.553,0,1,0.447,1,1S45.966,44.835,45.413,44.835z"></path></g><g><path d="M42.913,49.166h-7.007c-0.553,0-1-0.447-1-1s0.447-1,1-1h7.007c0.553,0,1,0.447,1,1S43.466,49.166,42.913,49.166z"></path></g></g></g></svg>