<svg xmlns="http://www.w3.org/2000/svg" width="64" height="64" enable-background="new 0 0 64 64" viewBox="0 0 64 64" id="program"><path d="M8 17h17c.553 0 1-.447 1-1s-.447-1-1-1H8c-.553 0-1 .447-1 1S7.447 17 8 17zM22 20c0-.553-.447-1-1-1H10c-.553 0-1 .447-1 1s.447 1 1 1h11C21.553 21 22 20.553 22 20zM20 35.008H10c-.553 0-1 .447-1 1s.447 1 1 1h10c.553 0 1-.447 1-1S20.553 35.008 20 35.008zM24 20c0 .553.447 1 1 1h3.002c.553 0 1-.447 1-1s-.447-1-1-1H25C24.447 19 24 19.447 24 20zM14 38.996H8c-.553 0-1 .447-1 1s.447 1 1 1h6c.553 0 1-.447 1-1S14.553 38.996 14 38.996zM16 23h-4c-.553 0-1 .447-1 1s.447 1 1 1h4c.553 0 1-.447 1-1S16.553 23 16 23zM38.008 23H20c-.553 0-1 .447-1 1s.447 1 1 1h18.008c.553 0 1-.447 1-1S38.561 23 38.008 23zM24 27.996c0-.553-.447-1-1-1H12c-.553 0-1 .447-1 1s.447 1 1 1h11C23.553 28.996 24 28.549 24 27.996zM32.004 30.996H18c-.553 0-1 .447-1 1s.447 1 1 1h14.004c.553 0 1-.447 1-1S32.557 30.996 32.004 30.996zM12 30.996c-.553 0-1 .447-1 1s.447 1 1 1h2c.553 0 1-.447 1-1s-.447-1-1-1H12z"></path><path d="M63.382,39.075C63.26,39.024,63.13,38.998,63,38.998h-5.002V27.992c0-0.13-0.026-0.26-0.077-0.382
		c-0.102-0.245-0.296-0.439-0.541-0.541c-0.122-0.051-0.252-0.077-0.382-0.077h-8.996V12v-2c0-1.654-1.346-3-3-3H3
		c-1.654,0-3,1.346-3,3v2v31.996c0,0.553,0.447,1,1,1l32.992,0.002V56c0,0.553,0.447,1,1,1h12.004H59c0.13,0,0.26-0.026,0.382-0.077
		c0.123-0.051,0.234-0.124,0.326-0.217l3.998-3.998c0.093-0.092,0.166-0.203,0.217-0.326C63.974,52.26,64,52.13,64,52V39.998
		c0-0.13-0.026-0.26-0.077-0.382C63.821,39.371,63.627,39.177,63.382,39.075z M62,51.586l-2,2v-9.174l2-2V51.586z M46.996,42.998
		h-5.002V32.996h10.004v10.002H46.996z M37.406,42.998l2-2h0.588v2H37.406z M45.412,28.992h1.541c0.018,0.001,0.031,0.01,0.049,0.01
		s0.031-0.009,0.049-0.01h7.534l-2.003,2.004h-9.174L45.412,28.992z M55.998,39.582l-2,2v-9.174l2-2.001V39.582z M57.41,40.998
		h3.176l-2,2H55.41L57.41,40.998z M44.996,26.992c-0.101,0-0.192,0.029-0.283,0.057c-0.031,0.01-0.064,0.007-0.095,0.02
		c-0.127,0.052-0.24,0.128-0.334,0.224l-3.996,3.996c-0.093,0.092-0.166,0.203-0.217,0.326c-0.051,0.122-0.077,0.252-0.077,0.382
		v7.002h-1.002c-0.13,0-0.26,0.026-0.382,0.077c-0.123,0.051-0.234,0.124-0.326,0.217l-3.706,3.706L5,42.996V13h41.002v13.992
		H44.996z M3,9h1.02c-0.552,0-0.994,0.447-0.994,1s0.452,1,1.005,1c0.552,0,1-0.447,1-1s-0.448-1-1-1H7.02
		c-0.552,0-0.994,0.447-0.994,1s0.452,1,1.005,1c0.552,0,1-0.447,1-1s-0.448-1-1-1h2.989c-0.552,0-0.994,0.447-0.994,1
		s0.452,1,1.005,1c0.552,0,1-0.447,1-1s-0.448-1-1-1h34.972c0.552,0,1,0.448,1,1v1H10.03h-3h-3H2v-1C2,9.448,2.448,9,3,9z M2,13h1
		v29.996H2V13z M35.992,44.998h5.002h5.002V55H35.992V44.998z M47.996,44.998h5.002H58V55H47.996V44.998z"></path></svg>